<svg width="50" height="51" viewBox="0 0 50 51" fill="none" xmlns="http://www.w3.org/2000/svg">
<circle cx="25" cy="25.7461" r="25" fill="#D56665"/>
<path d="M26.734 31.6151L27.5554 10.916H22.3989L23.2659 31.6151H26.734ZM24.9543 41.4245C25.8061 41.4245 26.521 41.1508 27.099 40.6034C27.6771 40.0561 27.9661 39.4079 27.9661 38.6588C27.9661 37.8522 27.6771 37.1896 27.099 36.671C26.521 36.1525 25.8061 35.8932 24.9543 35.8932C24.1025 35.8932 23.4028 36.1525 22.8552 36.671C22.3077 37.1896 22.0339 37.8522 22.0339 38.6588C22.0339 39.4079 22.3077 40.0561 22.8552 40.6034C23.4028 41.1508 24.1025 41.4245 24.9543 41.4245Z" fill="#FFF7F5"/>
</svg>
